<?xml version="1.0" standalone="no"?>
<!DOCTYPE svg PUBLIC "-//W3C//DTD SVG 20010904//EN"
 "http://www.w3.org/TR/2001/REC-SVG-20010904/DTD/svg10.dtd">
<svg version="1.0" xmlns="http://www.w3.org/2000/svg"
 width="997.000000pt" height="330.000000pt" viewBox="0 0 997.000000 330.000000"
 preserveAspectRatio="xMidYMid meet">

<g transform="translate(0.000000,330.000000) scale(0.100000,-0.100000)"
fill="#000000" stroke="none">
<path d="M1332 2966 c-40 -8 -86 -19 -104 -25 -19 -7 -119 -11 -257 -11 -188
0 -238 -3 -292 -18 -153 -43 -274 -172 -308 -330 -15 -73 -15 -1510 0 -1584
25 -119 122 -245 235 -305 118 -63 121 -63 740 -63 l561 0 39 -26 c21 -15 93
-64 159 -109 66 -45 157 -107 203 -138 47 -32 94 -57 108 -57 15 0 38 12 55
29 l29 29 0 176 0 176 50 48 c30 29 50 57 50 70 0 15 6 22 19 22 13 0 26 15
40 46 52 110 52 105 49 921 l-3 758 -25 63 c-45 117 -144 217 -260 264 -51 21
-75 23 -365 29 -254 5 -320 9 -365 23 -74 24 -263 30 -358 12z m-393 -756 c72
-73 97 -237 53 -351 -79 -201 -256 -128 -270 112 -6 98 16 176 65 229 31 35
41 40 78 40 35 0 49 -6 74 -30z m1171 -142 c-1 -44 -40 -410 -50 -471 -17 -95
-82 -221 -149 -287 -97 -97 -239 -149 -375 -136 -147 14 -285 82 -385 192 -43
47 -111 157 -111 179 0 4 19 -10 43 -29 53 -43 160 -90 245 -107 46 -8 71 -20
92 -40 24 -24 37 -29 79 -29 63 0 97 15 111 51 16 37 5 66 -33 90 -39 23 -97
24 -143 3 -29 -14 -41 -15 -82 -4 -106 26 -190 70 -262 137 -38 36 -70 70 -70
76 0 6 6 18 14 26 53 59 93 219 79 317 l-6 47 94 -7 c330 -23 460 -27 621 -16
139 10 214 18 281 29 4 0 7 -9 7 -21z m387 -35 c65 -69 104 -223 85 -333 -22
-124 -94 -234 -149 -228 -43 5 -41 36 7 86 100 108 102 310 5 417 -33 36 -43
64 -28 78 15 16 56 5 80 -20z m-129 -138 c56 -71 49 -204 -13 -271 -35 -37
-51 -40 -69 -12 -7 11 -3 30 12 66 24 56 28 112 11 161 -9 25 -8 36 5 56 21
31 30 31 54 0z m-1385 -596 c10 -76 64 -166 151 -254 44 -45 98 -95 120 -111
l38 -30 -43 -28 c-24 -16 -66 -52 -94 -81 l-50 -53 -53 66 c-76 94 -120 189
-132 285 -10 82 -1 187 19 226 19 34 38 25 44 -20z m227 -106 c72 -47 160 -81
240 -94 84 -13 259 -7 304 10 16 6 31 10 33 8 2 -3 -5 -29 -17 -59 -20 -54
-56 -108 -134 -200 l-39 -46 -56 42 c-31 24 -81 59 -111 79 -149 98 -261 204
-315 299 -35 60 -31 68 13 26 20 -19 57 -48 82 -65z m770 -73 c9 -19 20 -48
24 -64 9 -37 9 -144 0 -180 l-6 -27 -47 44 c-25 23 -60 49 -78 56 l-31 13 20
45 c11 24 22 70 25 101 9 95 49 100 93 12z m-1151 -103 c17 -77 70 -180 126
-244 l47 -53 -94 0 c-155 0 -264 39 -349 126 l-43 44 56 54 c56 53 227 152
239 138 3 -4 11 -33 18 -65z m1421 -10 c81 -55 131 -101 171 -156 l38 -54 -24
-19 c-25 -19 -25 -20 -25 -204 l0 -184 -67 48 c-153 108 -372 252 -406 267
-26 11 -71 15 -157 15 l-121 0 12 22 c6 12 32 43 57 70 38 40 51 48 81 48 44
0 100 -36 121 -76 37 -74 80 -85 124 -33 41 48 58 125 54 239 l-3 98 50 -25
c28 -14 70 -39 95 -56z m-780 -222 c91 -66 93 -65 -96 -65 l-169 1 35 29 c92
78 158 88 230 35z"/>
<path d="M1399 1981 c-61 -20 -105 -64 -93 -95 11 -28 36 -26 82 4 55 36 66
37 117 5 45 -28 73 -32 81 -11 21 54 -110 122 -187 97z"/>
<path d="M1814 1976 c-64 -29 -78 -83 -49 -201 8 -33 14 -77 15 -97 0 -45 -15
-51 -108 -46 -61 3 -67 1 -70 -18 -5 -34 32 -57 98 -62 71 -5 110 9 145 50 33
38 32 84 -1 188 -20 64 -23 84 -13 96 16 20 63 17 110 -6 47 -24 79 -14 79 25
0 57 -135 103 -206 71z"/>
<path d="M7530 2613 c-16 -27 -56 -91 -89 -143 l-61 -95 99 -3 99 -3 99 103
c55 57 117 122 138 146 l37 42 -146 0 -146 0 -30 -47z"/>
<path d="M3030 1865 l0 -646 133 3 132 3 2 220 2 220 100 3 c86 2 103 0 117
-15 16 -17 271 -410 277 -426 1 -4 72 -6 158 -5 l155 3 -157 225 c-87 124
-158 228 -158 232 -1 4 25 21 58 38 179 96 261 290 201 481 -38 122 -108 200
-235 260 -89 42 -160 49 -487 49 l-298 0 0 -645z m635 376 c27 -12 58 -29 69
-39 46 -42 62 -151 31 -212 -22 -43 -87 -87 -146 -99 -27 -6 -111 -11 -184
-11 l-135 0 0 196 0 197 158 -5 c134 -4 164 -8 207 -27z"/>
<path d="M4551 2185 c-84 -24 -150 -64 -222 -135 -119 -119 -170 -284 -139
-451 15 -82 72 -189 135 -252 104 -106 213 -149 375 -149 125 0 206 22 296 80
103 67 174 162 210 281 21 69 18 216 -6 292 -45 146 -163 266 -317 321 -77 28
-254 35 -332 13z m282 -248 c240 -141 143 -506 -134 -507 -111 0 -201 61 -245
167 -21 49 -22 157 -2 204 24 55 87 119 143 146 69 33 172 29 238 -10z"/>
<path d="M5800 2187 c-54 -15 -106 -45 -139 -81 -14 -14 -28 -26 -33 -26 -4 0
-8 23 -8 50 l0 50 -125 0 -125 0 0 -480 0 -480 125 0 125 0 0 305 c0 285 1
308 20 345 55 108 213 129 297 38 50 -53 53 -76 53 -393 l0 -295 125 0 125 0
0 300 c0 248 3 307 15 337 21 50 42 72 90 94 71 33 144 22 198 -29 57 -53 57
-55 57 -392 l0 -310 125 0 126 0 -3 373 -3 372 -28 57 c-31 64 -89 120 -157
152 -37 17 -64 21 -155 21 -105 0 -114 -2 -178 -33 -39 -19 -80 -49 -99 -72
l-32 -38 -39 43 c-57 65 -131 98 -231 102 -46 1 -101 -3 -126 -10z"/>
<path d="M7360 2184 c-98 -26 -192 -95 -266 -196 -136 -185 -115 -482 44 -646
104 -107 196 -142 369 -142 133 1 183 9 259 47 60 29 164 131 164 160 0 12
-29 36 -85 71 -47 28 -91 52 -98 52 -7 0 -30 -18 -52 -40 -54 -56 -107 -74
-197 -68 -90 6 -147 33 -188 89 -29 41 -56 106 -47 115 2 3 160 5 351 5 l346
-1 0 85 c0 46 -5 108 -11 137 -32 153 -167 292 -324 332 -73 20 -192 19 -265
0z m240 -214 c45 -23 75 -56 95 -102 29 -71 40 -68 -209 -68 l-225 0 9 30 c22
77 68 125 142 152 61 21 132 16 188 -12z"/>
<path d="M8473 2186 c-126 -31 -263 -135 -321 -244 -151 -284 -19 -629 278
-723 94 -30 260 -30 350 1 152 51 269 168 321 322 18 53 20 81 17 173 -3 103
-6 115 -41 189 -67 141 -208 254 -355 285 -68 14 -183 13 -249 -3z m235 -242
c130 -65 184 -207 132 -346 -23 -62 -86 -129 -143 -153 -61 -25 -149 -21 -210
9 -153 75 -194 293 -80 425 76 89 199 116 301 65z"/>
</g>
</svg>
